<?xml version="1.0" encoding="UTF-8"?>
<svg id="Capa_1" data-name="Capa 1" xmlns="http://www.w3.org/2000/svg" viewBox="0 0 2122 2122">
  <defs>
    <style>
      .cls-1 {
        fill: #e5692c;
      }

      .cls-2 {
        fill: #d64720;
      }

      .cls-3 {
        fill: #fff;
      }

      .cls-4 {
        fill: #ea533a;
      }

      .cls-5 {
        fill: #1e0c09;
      }

      .cls-6 {
        fill: #a51a16;
      }

      .cls-7 {
        fill: #e63423;
      }

      .cls-8 {
        fill: #382213;
      }

      .cls-9 {
        fill: #4c3b1a;
      }
    </style>
  </defs>
  <path class="cls-2" d="M1842.45,1457.81c21.09-14.8-22.81-67-48.11-90.37-25.3-23.37-16.29-51.62-13.47-94.72,2.83-43.1-29.13-39.87-55.65-65.12-1.66-1.58-3.24-3.03-4.77-4.37-.76-.67-1.51-1.32-2.25-1.94-2.95-2.49-5.68-4.62-8.31-6.56-1.97-1.46-3.88-2.82-5.77-4.16-2.52-1.79-5.01-3.54-7.55-5.45-.64-.48-1.28-.97-1.93-1.47-10.99-8.52-23.59-20.78-45.4-51.58-62.81-88.7-117.19-75.38-196.39-60.93-20.94,3.82-53.62,16.74-93.12,35.35,14.73-14.38,29.04-28.29,42.63-41.82,58.92-58.64,104.08-110.17,108.23-162.09,4.2-52.49-15.98-123.85-70.98-233.12-47.32-94-75.24-182-111.37-247.46-134.21-243.1-239.52-271.91-239.52-271.91-54.86-5.73-172.74,129.69-231.31,305.1-8.2-10.76-16.26-20.89-24.25-30.25-157-183.94-230.69-186.5-230.69-186.5-37.64,7.18-70.47,168.07-45.67,346.35,18.71,134.5,139.95,528.79,196.63,647.72,17.53,36.79,47.58,90.5,78.6,136.63-8.4-9.15-15.68-16.71-21.41-22.21-20.45-19.62-36.44-49.16-49.72-62.03-5.79-8.26-11.72-15.61-18.15-22.83-20.63-23.17-45.03-43.21-72.53-57.52-36.64-18.41-73.84-35.29-109.24-55.72-61.59-35.09-120.4-78.84-160.2-138.23-4.56-6.33-9.24-15.32-13.48-22.75-.53-15.33,2.15-26.19,2.15-32.09,0-8.06-.46-11.71-5.97-15.84-5.51-4.14-18.84,17.46-18.84,28.03,0,7.18,11.43,22.33,18.77,31.34,3.53,5.63,7.2,11.46,10.72,15.92,42.61,58.39,103.06,101.15,165.29,136.39,35.47,20.41,73.02,37.12,109.41,55.59,30.91,16.79,58.04,42.37,75.46,73.02-.01,0-.03.01-.04.02,0,0-6.55,6-9.78,16.22-4.36-3.03-8.75-5.87-13.28-8.65-26.46-16.2-55.62-28.31-86.08-34.04-40.41-7.01-80.9-12.39-120.7-21.67-69.11-15.74-138.08-40.57-193.38-85.89-6.2-4.74-13.29-11.99-19.49-17.86-4.95-14.52-5.53-25.69-7.24-31.33-2.34-7.71-3.83-11.07-10.31-13.43-6.48-2.36-12.97,22.17-9.91,32.29,2.08,6.87,17.4,18.06,27.04,24.55,5.01,4.36,10.21,8.88,14.88,12.13,57.7,43.54,127.95,66.95,197.71,82.65,39.86,9.25,80.64,14.37,120.82,21.5,36.67,7.57,72.13,25.91,98.23,52.82.34,10.25,4.12,21.27,9.37,32.11,6.76,13.98,27.2,8.22,37.15,18.59,9.95,10.36,20.31,19.12,22.36,47.91,2.04,28.79,8.44,69.35,36.17,103.14,8.73,10.64,18.36,17.59,28.11,22.6-.43,4.04-.9,8.07-1.47,12.08-10.47,14.32-22.45,27.52-36.13,38.84,5.08,12.75,9.75,25.7,14.17,38.74-3.52,7.51-7.42,14.85-11.86,21.88,10.17,12.2,19.98,24.76,29.43,37.58,6.52,29.52,15.21,61.91,5.85,91.18-4.4,10.15-10.32,30.54-.62,28.13,15.33-3.82,14.22-52.66,14.22-52.66,0,0-.08.13-.19.32,0-15.68-2.75-32.64-6.77-49.47,5.94,8.55,11.77,17.16,17.35,25.92,15.65,26.71,35.15,55.6,35.38,87.3-1.02,11.02-.3,32.23,8.16,26.92,12.36-7.75-.54-47.57-2.58-53.62-7.4-23.21-22.03-44.36-34.77-64.63-8.85-13.04-18.14-25.73-27.76-38.16-5.5-19.49-12.04-38.07-17.13-53.33-.92-2.54-1.91-5.05-2.85-7.58,12.24-24.52,20.12-51.04,24.63-78.2,1.53-2.01,3.04-4.04,4.52-6.09,17.31,6.69,33.99,9.42,45.58,18.02,9.27,6.88,20.93,12.14,32.4,17.79l64.66,109.06c-10.55,49.17-13.09,99.55-10.12,149.64,1.06,15.85,2.86,31.6,5.33,47.26,2.45,24.38,6.31,53.43,11.25,61,8.91,13.65,22.48,20.88,24.12,8.03.87-6.78-4.73-17.44-12.92-35.6-4.59-17.22-8.79-34.6-11.44-52.31-9.38-58.98-9.98-120.13.55-178.97l-.59-1.16-46.96-93.05c4.84,3.62,9.19,7.68,12.67,12.46,7.68,10.58,20.05,20.48,32.74,30.65l49.61,69.84c-7.54,59.89-4.42,120.84,7.64,179.9,1.16,5.98,2.53,11.91,3.99,17.82,4.44,23.86,10.56,51.73,16.03,58.76,10,12.87,24.12,18.95,24.7,6.02.31-6.83-6.15-16.99-15.81-34.41-5.99-16.79-11.61-33.76-15.71-51.19-14.21-58-19.84-118.9-14.19-178.41l-.68-1.11-22.68-37.02c.89,1.09,1.78,2.17,2.59,3.28,17.61,23.92,45.4,39.48,86.31,74.57,40.91,35.09,100.51,53.04,127.31,51.25,26.8-1.79,49.63-8.42,49.6-30.6-.03-21.75-16.56-28.09-51.17-44.22-3.57-2.74-7.01-4.88-9.12-4.4-33.36-15.97-64.72-33.36-94.27-48.7-.21-.11-.43-.24-.65-.35-4.67-3.41-9.22-6.21-13.58-7.43-20.71-11.75-43.38-26.4-66.6-41.33,45.29,21.05,96.9,39.6,148.27,55.86,17.97,5.69,36.57,15.64,55.75,28.09,6.39,4.15,12.86,8.58,19.38,13.21,13.05,9.28,26.35,19.4,39.91,29.85,3.39,2.61,6.79,5.24,10.21,7.89,64.94,50.25,135.35,104.88,210.03,107.82,70.62,2.78,64.27,24.75,118.75-10.73,11.92-7.76,21.27-15.16,28.66-22.29,1.06-1.02,2.07-2.03,3.05-3.04,23.47-24.18,24.96-45.27,29.05-66.64,1.7-8.9,7.82-16.63,16.06-24.48,4.94-4.71,10.65-9.47,16.62-14.56,15.93-13.57,33.74-29.5,44.01-53.15,20.54-47.31,18.77-81.7,11.28-103.86-7.49-22.16-17.72-85.49,3.37-100.29ZM856.48,1669.42c-6.68-8.24-13.47-16.39-20.46-24.4,3.12-4.83,6.03-9.77,8.76-14.8,4.27,12.97,8.12,26.05,11.7,39.2ZM860.83,1567.14c-3.46,16.84-8.38,33.46-15.11,49.29-3.86-10.17-7.86-20.3-12.14-30.33,10.52-8.51,20.16-17.92,28.96-28.05-.54,3.04-1.1,6.08-1.72,9.09ZM966.39,1537.14c-6.54-9.33-13.32-18.74-20.25-28.14,3.55-.45,7.28-1.32,11.21-2.58-1.18,3.34-2.35,6.69-3.44,10.06.33.38.66.75.99,1.13h0c5.73,6.59,11.36,13,16.76,19.06.53.6,1.1,1.18,1.65,1.77,1.88,2.05,3.84,4.09,5.88,6.11,2.53,2.51,5.14,5.01,7.91,7.47,1.64,1.46,3.34,2.91,5.05,4.35,6.25,5.25,12.99,10.38,20.19,15.4-18.42-9.04-34.6-18.47-45.94-34.64Z"/>
  <path class="cls-7" d="M1842.45,1457.81c21.09-14.8-22.81-67-48.11-90.37-25.3-23.37-16.29-51.62-13.47-94.72,2.83-43.1-29.13-39.87-55.65-65.12-1.66-1.58-3.24-3.03-4.77-4.37-.76-.67-1.51-1.32-2.25-1.94-2.95-2.49-5.68-4.62-8.31-6.56-1.97-1.46-3.88-2.82-5.77-4.16-2.52-1.79-5.01-3.54-7.55-5.45-.64-.48-1.28-.97-1.93-1.47-10.99-8.52-23.59-20.78-45.4-51.58-62.81-88.7-117.19-75.38-196.39-60.93-20.94,3.82-53.62,16.74-93.12,35.35-23.21,22.66-47.39,46.51-71.28,71.87-1.93,2.04-3.85,4.08-5.77,6.14-9.98,10.73-19.88,21.76-29.62,33.06-4.8,5.58-9.58,11.2-14.29,16.93-16.98,20.64-35.27,42.56-54.22,64.66-9.43,10.99-19.02,22.03-28.7,32.97-15.41,17.42-31.03,34.61-46.56,51.04-16.86,17.84-33.6,34.77-49.82,50.1-37.12,35.09-71.49,61.79-98.23,71.8-1.32.49-2.62.94-3.9,1.36-1.18,3.34-2.35,6.69-3.44,10.06.33.38.66.75.99,1.13h0c5.73,6.59,11.36,13,16.76,19.06.53.6,1.1,1.18,1.65,1.77,1.88,2.05,3.84,4.09,5.88,6.11,2.53,2.51,5.14,5.01,7.91,7.47,1.64,1.46,3.34,2.91,5.05,4.35,6.25,5.25,12.99,10.38,20.19,15.4-18.42-9.04-34.6-18.47-45.94-34.64-6.54-9.33-13.32-18.74-20.25-28.14-6.24.79-11.89.32-16.83-1.64-.99-.39-1.98-.95-2.97-1.43-6.18-3.04-12.31-7.8-18.35-14.14-19.68-20.67-38.36-57.19-54.42-98.48-7.73-8.9-14.96-17.02-21.52-24.17-8.4-9.15-15.68-16.71-21.41-22.21-20.45-19.62-36.44-49.16-49.72-62.03-5.79-8.26-11.72-15.61-18.15-22.83-20.63-23.17-45.03-43.21-72.53-57.52-36.64-18.41-73.84-35.29-109.24-55.72-61.59-35.09-120.4-78.84-160.2-138.23-4.56-6.33-9.24-15.32-13.48-22.75-.53-15.33,2.15-26.19,2.15-32.09,0-8.06-.46-11.71-5.97-15.84-5.51-4.14-18.84,17.46-18.84,28.03,0,7.18,11.43,22.33,18.77,31.34,3.53,5.63,7.2,11.46,10.72,15.92,42.61,58.39,103.06,101.15,165.29,136.39,35.47,20.41,73.02,37.12,109.41,55.59,30.91,16.79,58.04,42.37,75.46,73.02-.01,0-.03.01-.04.02,0,0-6.55,6-9.78,16.22-4.36-3.03-8.75-5.87-13.28-8.65-26.46-16.2-55.62-28.31-86.08-34.04-40.41-7.01-80.9-12.39-120.7-21.67-69.11-15.74-138.08-40.57-193.38-85.89-6.2-4.74-13.29-11.99-19.49-17.86-4.95-14.52-5.53-25.69-7.24-31.33-2.34-7.71-3.83-11.07-10.31-13.43-6.48-2.36-12.97,22.17-9.91,32.29,2.08,6.87,17.4,18.06,27.04,24.55,5.01,4.36,10.21,8.88,14.88,12.13,57.7,43.54,127.95,66.95,197.71,82.65,39.86,9.25,80.64,14.37,120.82,21.5,36.67,7.57,72.13,25.91,98.23,52.82.34,10.25,4.12,21.27,9.37,32.11,6.76,13.98,27.2,8.22,37.15,18.59,9.95,10.36,20.31,19.12,22.36,47.91,2.04,28.79,8.44,69.35,36.17,103.14,8.73,10.64,18.36,17.59,28.11,22.6-.43,4.04-.9,8.07-1.47,12.08-10.47,14.32-22.45,27.52-36.13,38.84,5.08,12.75,9.75,25.7,14.17,38.74-3.52,7.51-7.42,14.85-11.86,21.88,10.17,12.2,19.98,24.76,29.43,37.58,6.52,29.52,15.21,61.91,5.85,91.18-4.4,10.15-10.32,30.54-.62,28.13,15.33-3.82,14.22-52.66,14.22-52.66,0,0-.08.13-.19.32,0-15.68-2.75-32.64-6.77-49.47,5.94,8.55,11.77,17.16,17.35,25.92,15.65,26.71,35.15,55.6,35.38,87.3-1.02,11.02-.3,32.23,8.16,26.92,12.36-7.75-.54-47.57-2.58-53.62-7.4-23.21-22.03-44.36-34.77-64.63-8.85-13.04-18.14-25.73-27.76-38.16-5.5-19.49-12.04-38.07-17.13-53.33-.92-2.54-1.91-5.05-2.85-7.58,12.24-24.52,20.12-51.04,24.63-78.2,1.53-2.01,3.04-4.04,4.52-6.09,17.31,6.69,33.99,9.42,45.58,18.02,9.27,6.88,20.93,12.14,32.4,17.79l64.66,109.06c-10.55,49.17-13.09,99.55-10.12,149.64,1.06,15.85,2.86,31.6,5.33,47.26,2.45,24.38,6.31,53.43,11.25,61,8.91,13.65,22.48,20.88,24.12,8.03.87-6.78-4.73-17.44-12.92-35.6-4.59-17.22-8.79-34.6-11.44-52.31-9.38-58.98-9.98-120.13.55-178.97l-.59-1.16-46.96-93.05c4.84,3.62,9.19,7.68,12.67,12.46,7.68,10.58,20.05,20.48,32.74,30.65l49.61,69.84c-7.54,59.89-4.42,120.84,7.64,179.9,1.16,5.98,2.53,11.91,3.99,17.82,4.44,23.86,10.56,51.73,16.03,58.76,10,12.87,24.12,18.95,24.7,6.02.31-6.83-6.15-16.99-15.81-34.41-5.99-16.79-11.61-33.76-15.71-51.19-14.21-58-19.84-118.9-14.19-178.41l-.68-1.11-22.68-37.02c.89,1.09,1.78,2.17,2.59,3.28,17.61,23.92,45.4,39.48,86.31,74.57,40.91,35.09,100.51,53.04,127.31,51.25,26.8-1.79,49.63-8.42,49.6-30.6-.03-21.75-16.56-28.09-51.17-44.22-3.57-2.74-7.01-4.88-9.12-4.4-33.36-15.97-64.72-33.36-94.27-48.7-.21-.11-.43-.24-.65-.35-4.67-3.41-9.22-6.21-13.58-7.43-20.71-11.75-43.38-26.4-66.6-41.33,45.29,21.05,96.9,39.6,148.27,55.86,17.97,5.69,36.57,15.64,55.75,28.09,6.39,4.15,12.86,8.58,19.38,13.21,13.05,9.28,26.35,19.4,39.91,29.85,3.39,2.61,6.79,5.24,10.21,7.89,64.94,50.25,135.35,104.88,210.03,107.82,70.62,2.78,64.27,24.75,118.75-10.73,11.92-7.76,21.27-15.16,28.66-22.29,1.06-1.02,2.07-2.03,3.05-3.04,23.47-24.18,24.96-45.27,29.05-66.64,1.7-8.9,7.82-16.63,16.06-24.48,4.94-4.71,10.65-9.47,16.62-14.56,15.93-13.57,33.74-29.5,44.01-53.15,20.54-47.31,18.77-81.7,11.28-103.86-7.49-22.16-17.72-85.49,3.37-100.29ZM856.48,1669.42c-6.68-8.24-13.47-16.39-20.46-24.4,3.12-4.83,6.03-9.77,8.76-14.8,4.27,12.97,8.12,26.05,11.7,39.2ZM860.83,1567.14c-3.46,16.84-8.38,33.46-15.11,49.29-3.86-10.17-7.86-20.3-12.14-30.33,10.52-8.51,20.16-17.92,28.96-28.05-.54,3.04-1.1,6.08-1.72,9.09Z"/>
  <path class="cls-5" d="M1842.45,1457.81c21.09-14.8-22.81-67-48.11-90.37-25.3-23.37-16.29-51.62-13.47-94.72,2.83-43.1-29.13-39.87-55.65-65.12-1.66-1.58-3.24-3.03-4.77-4.37-.76-.67-1.51-1.32-2.25-1.94-2.95-2.49-5.68-4.62-8.31-6.56-1.97-1.46-3.88-2.82-5.77-4.16-2.52-1.79-5.01-3.54-7.55-5.45-.64-.48-1.28-.97-1.93-1.47-10.99-8.52-23.59-20.78-45.4-51.58-62.81-88.7-117.19-75.38-196.39-60.93-20.94,3.82-53.62,16.74-93.12,35.35-23.21,22.66-47.39,46.51-71.28,71.87-24.89,19.53-57.65,47.7-78.54,59.81-35.37,20.52-179.17,118.87-214.94,151.8-35.77,32.93-68.18,51.99-58.07,33.13,5.21-9.71,27.7-37.32,49.51-62.83l.72.34c.53-1.07,1.11-2.1,1.68-3.14,13.39-15.6,26.26-30.08,34.44-38.83,27.33-23.84,57.82-44.3,81.58-71.97,36.37-41.41,67.96-86.68,98.86-132.22,30.15-46.05,67.1-87.03,103.54-128.12,25.71-28.47,51.86-56.58,78.42-84.26,27.15-25.77,58.32-52.89,66.87-47.8,14.53,8.64,30.87,15.69,23.66,54.13-5.83,31.03-26.58,92.25-73.82,156.26,58.92-58.64,104.08-110.17,108.23-162.09,4.2-52.49-15.98-123.85-70.98-233.12-47.32-94-75.24-182-111.37-247.46-134.21-243.1-239.52-271.91-239.52-271.91-54.86-5.73-172.74,129.69-231.31,305.1-8.2-10.76-16.26-20.89-24.25-30.25-157-183.94-230.69-186.5-230.69-186.5-37.64,7.18-70.47,168.07-45.67,346.35,18.71,134.5,139.95,528.79,196.63,647.72,17.53,36.79,47.58,90.5,78.6,136.63-8.4-9.15-15.68-16.71-21.41-22.21-20.45-19.62-36.44-49.16-49.72-62.03-5.79-8.26-11.72-15.61-18.15-22.83-20.63-23.17-45.03-43.21-72.53-57.52-36.64-18.41-73.84-35.29-109.24-55.72-61.59-35.09-120.4-78.84-160.2-138.23-4.56-6.33-9.24-15.32-13.48-22.75-.53-15.33,2.15-26.19,2.15-32.09,0-8.06-.46-11.71-5.97-15.84-5.51-4.14-18.84,17.46-18.84,28.03,0,7.18,11.43,22.33,18.77,31.34,3.53,5.63,7.2,11.46,10.72,15.92,42.61,58.39,103.06,101.15,165.29,136.39,35.47,20.41,73.02,37.12,109.41,55.59,30.91,16.79,58.04,42.37,75.46,73.02-.01,0-.03.01-.04.02,0,0-6.55,6-9.78,16.22-4.36-3.03-8.75-5.87-13.28-8.65-26.46-16.2-55.62-28.31-86.08-34.04-40.41-7.01-80.9-12.39-120.7-21.67-69.11-15.74-138.08-40.57-193.38-85.89-6.2-4.74-13.29-11.99-19.49-17.86-4.95-14.52-5.53-25.69-7.24-31.33-2.34-7.71-3.83-11.07-10.31-13.43-6.48-2.36-12.97,22.17-9.91,32.29,2.08,6.87,17.4,18.06,27.04,24.55,5.01,4.36,10.21,8.88,14.88,12.13,57.7,43.54,127.95,66.95,197.71,82.65,39.86,9.25,80.64,14.37,120.82,21.5,36.67,7.57,72.13,25.91,98.23,52.82.34,10.25,4.12,21.27,9.37,32.11,6.76,13.98,27.2,8.22,37.15,18.59,9.95,10.36,20.31,19.12,22.36,47.91,2.04,28.79,8.44,69.35,36.17,103.14,8.73,10.64,18.36,17.59,28.11,22.6-.43,4.04-.9,8.07-1.47,12.08-10.47,14.32-22.45,27.52-36.13,38.84,5.08,12.75,9.75,25.7,14.17,38.74-3.52,7.51-7.42,14.85-11.86,21.88,10.17,12.2,19.98,24.76,29.43,37.58,6.52,29.52,15.21,61.91,5.85,91.18-4.4,10.15-10.32,30.54-.62,28.13,15.33-3.82,14.22-52.66,14.22-52.66,0,0-.08.13-.19.32,0-15.68-2.75-32.64-6.77-49.47,5.94,8.55,11.77,17.16,17.35,25.92,15.65,26.71,35.15,55.6,35.38,87.3-1.02,11.02-.3,32.23,8.16,26.92,12.36-7.75-.54-47.57-2.58-53.62-7.4-23.21-22.03-44.36-34.77-64.63-8.85-13.04-18.14-25.73-27.76-38.16-5.5-19.49-12.04-38.07-17.13-53.33-.92-2.54-1.91-5.05-2.85-7.58,12.24-24.52,20.12-51.04,24.63-78.2,1.53-2.01,3.04-4.04,4.52-6.09,17.31,6.69,33.99,9.42,45.58,18.02,9.27,6.88,20.93,12.14,32.4,17.79l64.66,109.06c-10.55,49.17-13.09,99.55-10.12,149.64,1.06,15.85,2.86,31.6,5.33,47.26,2.45,24.38,6.31,53.43,11.25,61,8.91,13.65,22.48,20.88,24.12,8.03.87-6.78-4.73-17.44-12.92-35.6-4.59-17.22-8.79-34.6-11.44-52.31-9.38-58.98-9.98-120.13.55-178.97l-.59-1.16-46.96-93.05c4.84,3.62,9.19,7.68,12.67,12.46,7.68,10.58,20.05,20.48,32.74,30.65l49.61,69.84c-7.54,59.89-4.42,120.84,7.64,179.9,1.16,5.98,2.53,11.91,3.99,17.82,4.44,23.86,10.56,51.73,16.03,58.76,10,12.87,24.12,18.95,24.7,6.02.31-6.83-6.15-16.99-15.81-34.41-5.99-16.79-11.61-33.76-15.71-51.19-14.21-58-19.84-118.9-14.19-178.41l-.68-1.11-22.68-37.02c.89,1.09,1.78,2.17,2.59,3.28,17.61,23.92,45.4,39.48,86.31,74.57,40.91,35.09,100.51,53.04,127.31,51.25,26.8-1.79,49.63-8.42,49.6-30.6-.03-21.75-16.56-28.09-51.17-44.22-3.57-2.74-7.01-4.88-9.12-4.4-33.36-15.97-64.72-33.36-94.27-48.7-.21-.11-.43-.24-.65-.35-4.67-3.41-9.22-6.21-13.58-7.43-20.71-11.75-43.38-26.4-66.6-41.33,45.29,21.05,96.9,39.6,148.27,55.86,17.97,5.69,36.57,15.64,55.75,28.09,6.39,4.15,12.86,8.58,19.38,13.21,13.05,9.28,26.35,19.4,39.91,29.85,3.39,2.61,6.79,5.24,10.21,7.89,64.94,50.25,135.35,104.88,210.03,107.82,70.62,2.78,64.27,24.75,118.75-10.73,11.92-7.76,21.27-15.16,28.66-22.29,1.06-1.02,2.07-2.03,3.05-3.04,23.47-24.18,24.96-45.27,29.05-66.64,1.7-8.9,7.82-16.63,16.06-24.48,4.94-4.71,10.65-9.47,16.62-14.56,15.93-13.57,33.74-29.5,44.01-53.15,20.54-47.31,18.77-81.7,11.28-103.86-7.49-22.16-17.72-85.49,3.37-100.29ZM856.48,1669.42c-6.68-8.24-13.47-16.39-20.46-24.4,3.12-4.83,6.03-9.77,8.76-14.8,4.27,12.97,8.12,26.05,11.7,39.2ZM860.83,1567.14c-3.46,16.84-8.38,33.46-15.11,49.29-3.86-10.17-7.86-20.3-12.14-30.33,10.52-8.51,20.16-17.92,28.96-28.05-.54,3.04-1.1,6.08-1.72,9.09ZM1691.17,1680.59c-22.48.45-22.96-36.88-61.7-61.2-31.9-20.02-125.51-45.27-159.86-54.86,37.16-6.65,75.61-22.31,89.96-51.7,13.64-.23,40.06-.69,66.18-1.21,28.96-.58,85.09,34.51,109.11,50.48,4.68,12.98,6.75,24.48,3.76,40.47-5.05,26.99-26.77,63.27-47.44,78.03ZM1733.88,1468.22c-1.2,3.35-2.82,6.63-4.56,9.95-21.3,3.17-76.14,10.71-112.63,10.02-22.17-.42-41.41-7.07-55.48-13.87-6.16-18-19.93-33.42-31.94-47.21-20.61-22.66-43.57-41.71-63.48-64.06,83.73-6.75,165.71,12.6,204.13,23.63,2.06,4.28,4.7,8.37,8.27,12.15,24.92,26.39,61.94,51.94,55.69,69.39ZM1571.53,1219.59c6.48,8.15,13.64,16.2,22.28,23.8,35.9,31.55,62.98,30.4,69.47,59.55,3.09,13.86.99,30.26.61,46.49-41.15-6.73-164.49,1.59-205.75,4.65-1.93-2.37-3.88-4.72-5.73-7.18-15.67-20.23-36.65-33.52-59.71-41.69,29.32-16.69,128.54-72.03,178.83-85.61ZM1506.86,1149.53c20.19,11.52,32.93,27.05,45.1,43.64-47.65,27.6-139.44,81.26-177.4,106.73-8.49-2-17.14-3.42-25.81-4.32.53-5.09,1.7-10.4,2.88-15.21,12.71-40.77,31.27-79.45,51.91-116.95,43.56-14.28,72.35-31.56,103.32-13.89ZM866.16,704.81s60.88-172.27,73.57-109.14c0,0,17.3,62.77,26.19,56.39,8.89-6.38,25.1-47.5,44.53-61.99.31-.23.61-.4.91-.6,11.17,33.83,28.37,98.23,22.47,160.49-8.53,90.03-12.48,133.21-45.9,220.99-33.42,87.78-57.79,131.51-69.01,203.36-11.21,71.85-17.64,77.13-16.66,140.63.98,63.49-7.76,83.65,1.75,115.41,9.51,31.76,2.42,42.11-5.45,33.23-7.85-8.86-22.14-40.29-22.22-40.46-13.5-38.22-64.03-191.79-51.55-317.35,0,0-15.9-223.47,41.37-400.95ZM749.18,560.67c15.78,13.99,39.55,68.84,57.97,115.26,2.22,5.59,4.36,11.06,6.41,16.32.39,1.17.79,2.47,1.2,3.76-.85,8.63-1.68,17.36-2.48,26.19-4.14,45.73-7.57,93.82-10.14,141.68-1.47,27.24-2.66,54.4-3.55,80.99-.03-.85-.06-1.67-.09-2.52-4.72-157.51-64.62-267.21-81.13-305.44,3.28-30.52,6.44-98.74,31.82-76.24ZM801.99,566.08c3.22-25.28,16.55-31.1,31.83-16.17-5.22,29.68-10.01,64.03-14.3,101.34-11.81-31.92-20.4-62.61-17.52-85.17ZM1376.11,899.26l-18.68,21.23c-53.7,62.62-110.38,123.5-155.64,192.7-30.62,45.6-61.63,91.3-98.05,132.51-22.76,26.5-51.68,46.31-78.35,68.64-19.32,13.19-75.25,51.47-75.46,40.06-.27-14.47,66.44-140.38,116.53-205.25,22.87-29.61,46.42-64.51,66.91-97.17.15-.1.31-.18.46-.29,2.1-1.51,2.91-3.31,2.97-5.2,20.03-32.22,36.8-61.78,46.57-81.25,24.88-30.53,50.41-61.18,75.11-90.8,29.08-34.95,61.59-67.17,96.62-96.18,23.09-11.34,53.14-32.54,66.47-18.08,14.54,15.77,34.51,23.2,12.77,60.11-10.76,18.27-36.61,51.54-58.23,78.94ZM1177,815c.25,1.66.44,2.99.58,3.94-.26-1.85.15-4.15.95-6.83,2.97-5.69,5.28-11.34,6.71-17.05h0c7.11-17.3,16.16-42.63,13.44-78.02-4.49-58.29-12.17-126.71,13.16-162.43,25.32-35.72,60.73-22.07,68.14,36.13,7.4,58.21,6.45,104.23-73.58,223.2,0,0-30.57,30.75-39.44,53.63-6.54,16.84-14.66,71.42-14.66,71.42,0,0,36.95-84.43,51.07-102.34,14.12-17.9,76.28-128.92,100.78-161.87,13.27-17.85,58.7-43.29,75.05-32.68,16.35,10.61,15.19,41.42-10.11,85.69-5.9,10.32-28.95,42.77-27.94,52.09-69.46,68.52-126.83,148.89-194.79,218.87l.45.39c-4.49,4.39-9.37,9.12-14.75,14.26-40.46,38.7-107.36,157.32-125.11,176.05-17.75,18.73-33.81,73.19-45.08,61.08-11.28-12.11-16.03-54.22,52.94-203.97,60.46-131.27,135.48-184.07,162.19-231.56ZM1136.44,791.73c-36.69,74.72-86.03,140.3-119.33,205.44-33.29,65.14-49.39,118.14-60.36,158.23-10.97,40.09-11.06,91.2-10.83,126.96.23,35.77-1.19,64.28-8.01,54.97-6.82-9.31-24.13-.83-19.32-51.64,4.82-50.81,15.86-166.06,98.08-349.22,72.75-162.05,41.5-295.03,36.94-339.83,20.16-29.91,59.2-98.24,84.54-66.32,17.67,22.26,23.92,100.36,26.66,156.93-.44,20.77-5.3,57.47-28.38,104.47ZM732.01,1131.83s-78.11-192.2-97.08-359.9c0,0-15.16-163.91,11.96-111.37,0,0,29.85,51.23,33.38,43.73,3.53-7.5.95-46.98,8.48-63.85.12-.27.25-.48.38-.72,17.22,27.21,47.51,79.89,62.91,135.66,22.26,80.65,33.03,119.3,39.28,203.33,2.52,33.94,3.76,61.22,5.33,86.05.27,62.81,2.89,116.24,8.3,151.14,1.15,7.4,2.59,15.47,4.27,23.97,5.33,27.05,13.19,58.92,22.97,91.15,4.83,15.93,10.12,31.92,15.79,47.45-29.88-47.88-89.94-151.19-115.97-246.64ZM966.39,1537.14c-6.54-9.33-13.32-18.74-20.25-28.14,3.55-.45,7.28-1.32,11.21-2.58,1.28-.41,2.58-.86,3.9-1.36,26.74-10.01,61.1-36.71,98.23-71.8,16.22-15.33,32.96-32.26,49.82-50.1,15.53-16.43,31.15-33.61,46.56-51.04-25.32,21.1-98.15,80.87-123.62,91.73-31.04,13.25-45.91,30.44-47.21,9.3-1.3-21.14,168-162.16,187.1-156.86,9.88,2.74,12.33,13.29,12.43,22.85,18.95-22.1,37.24-44.01,54.22-64.66,4.71-5.73,9.49-11.35,14.29-16.93,9.74-11.31,19.64-22.33,29.62-33.06,26.44-2.86,53.55-6.21,76.17-9.91,9.52-1.56,18.41-3.57,26.8-5.83-10.5,30.22-22.25,63.98-30.6,91.84-3.4,11.36-6.8,23.05-8.19,34.91-46.46,9.61-106.42,42.68-167.1,83.5-76.18,51.25-153.45,114.71-206.47,159.44,1.88,2.05,3.84,4.09,5.88,6.11,23.9-20.37,48.12-40.42,72.69-60,40.87-32.32,82.47-63.97,125.58-93.31,21.29-14.49,42.92-28.47,65.06-41.59,33.17-19.01,68.03-38.28,105.62-45.77,26.78,8.18,68.88,26.45,85.9,55.75,21.3,33.86,50.55,58.82,73.94,86.47,10.32,12.14,22.53,26.56,26.46,41.1,5.61,27.86-43.36,43.12-65.83,47.94-26.63,5.73-51.63,6.56-78.28,1.19-26.98-4.76-56.28-10.41-83.36-14.51-38.11-5.31-76.31-10.03-115.17-5.83-13.5,2-26.88,4.23-40.22,6.57-53.74,9.39-106.41,21.2-159.44,33.82,6.25,5.25,12.99,10.38,20.19,15.4-18.42-9.04-34.6-18.47-45.94-34.64ZM1533.09,1780.54c-6.02-.95-13.54-3.09-23.59-6.68-36.38-13.01-244.08-163.6-316.77-174.09-48.47-7-136.16-24.09-189.24-34.71,43.99-6.75,107.15-16.34,135.27-20.23,1.41-.21,2.8-.4,4.2-.6,29.22-4.21,57.57-7.61,86.74-6.11,26.24,19.84,163.03,105.18,201.1,129.46,33.28,21.23,106.66,77.15,133.92,98.08-10.74,11.41-15.89,17.36-31.63,14.88ZM1616,1747.23c-7.15-.58-12.96-.72-17.89-.39h0c-13.36-16.62-211.53-113.91-270.51-149.77-35.75-21.74-49.31-41.86-54.46-54.34,47.36,6.82,93.94,19.28,141.61,25.5,9.17.53,19.93.38,31.39-.6,23.71,9.74,118.63,48.98,158.93,70.48,33.72,17.99,55.13,56.54,63.66,74.5-1.1,3.79-2.25,7.95-3.84,12.73-6.81,20.45-19.47,24.29-48.88,21.89Z"/>
  <path class="cls-9" d="M907.99,1491.79c-14.41-8.8-44.45-28.93-55.6-33.27-11.87-4.62-32.68-13.57-36.18-8,0,0-2.67,7.13,4.17,17.67,6.85,10.53,6.32,15.9,14.47,18.19,8.15,2.28,24.47,6.85,31.64,9.04,7.18,2.19,37.84,6.2,37.55,9.12-.29,2.93-34.42-5.86-41.99-4.14-7.56,1.72-25.59-5.48-20.59,3.88,4.99,9.37,7.62,10.49,14.37,15.65,6.75,5.16,7.53,7.21,11.58,6.13,4.05-1.08,16.12-3.46,27.34-2.3,11.22,1.17,23.48,6.8,34.13,8.84,10.64,2.04,23.88,7.78,25.05,5.93,1.17-1.86-17.06-16.96-22.29-18.96-5.22-1.99-47.99-3.25-51.65-6.08-3.66-2.83-1.18-3.07,7.32-4.21,8.49-1.13,12.5,3.2,25.58.55,7.76-1.57,11.31-3.03,13.45-3.91-6.18-3.04-12.31-7.8-18.35-14.14Z"/>
  <path class="cls-9" d="M740,1303.5c1.52,4.59,10.27,10.87,12.95,13.6,2.69,2.73,13.53,7.74,9.58,7.85-3.95.1-21.45-12.47-22.08-11.05-.63,1.42-.34,3.45,2.55,9.14,2.89,5.69.11,8.87,8.36,10.17,8.25,1.31,15.33-.46,20.26-.47,4.93,0,13.18,1.3,8.29-4.11-4.89-5.41-22.15-25.35-26.4-32.18-4.26-6.83-11.88-9.55-12.69-1.25,0,0-2.34,3.71-.82,8.3Z"/>
  <path class="cls-8" d="M1115.32,1651.56c-9.42.55-51.78,5.25-51.78,5.25,0,0-2.72,7.62,10.32,15.31,13.04,7.69,17.14,6.13,23.1,5.73,5.95-.4,27.42-8.14,38.4-9.52,10.98-1.38,25.42-7.85,20.45-2.42-4.97,5.43-10.34,9.83-18.09,13.5-7.76,3.67-14.78,4.95-25.42,7.85-10.64,2.9-15.81,5.34-10.97,6.31,4.83.97,6.88.19,13.67,1.35,6.79,1.16,8.01,3.75,14.98-1.97,6.97-5.72,14.08-7.78,20.87-11.64,6.79-3.87,9.66-8.02,13.86-5.64,4.2,2.39,12.1-2.75,19.82,3.93,7.72,6.68,16.37,9.01,15.69,15.84q-.67,6.83-7.64,17.49c-6.97,10.65-7.99,11.04-18.58,13.45-10.59,2.41-21.76,5.74-19.56,8.42,2.2,2.68.2,2.98,5.82,6,5.62,3.02,3.28,6.73,14.65,1.44,11.37-5.29,16.5-2.32,19.85-11.35,3.36-9.04,3.27-13.14,8.13-22.44,4.86-9.3,10.95-16.1,13.69-13.85,2.74,2.24,9.38,4.87,9.83,10.33.45,5.47-3.42,29.73-7.81,39.16-4.38,9.43-16.28,15.16-20.48,17.7-4.19,2.54-3.46,5.08,1.38,6.05,4.83.97,7.08,3.16,9.77.96,2.68-2.2,3.56-5.07,12.1-9.65,8.53-4.58,13.22-2.15,14.42-14.35,1.2-12.21-5.6-28.16-1.36-31.19,4.24-3.03,9.81-4.46,11.91-.8,2.1,3.66,5.91,5.02,7.14,7.61,1.22,2.58-4.75,23.19-6.75,28.42-1.99,5.23-2.92,6.61-8.04,12.52-5.12,5.9-19.26,14.37-16.48,16.12,2.78,1.75,4.79,1.46,7.81.77,3.03-.69,9.75-8.9,14.67-13.83,4.92-4.94,9.17-7.97,11.35-15.15s2.6-26.36,8.11-27.3c5.51-.94,12.86-.44,11.57,7.68-1.29,8.12-7.03,21.36-11.86,30.25-4.82,8.89-21.74,20.53-17.59,23.41,4.15,2.87,7.62,2.72,14.16,1.4,6.54-1.33,10.93-.89,14.14-8.46,3.21-7.57,5.65-12.26,7.15-22.46,1.5-10.2.89-24.06,7.46-20.7,6.57,3.35,9.74,1.2,10,8.62.25,7.42,4.31,11.27-2.07,20.99-6.38,9.72-22.04,18.53-15.4,21.16,6.64,2.63,11.48,3.6,20.5-2.91,9.02-6.5,14.05-7.49,14.08-17.84.04-10.35-3-19.52-7.45-24.4-4.45-4.88-20.47-12.37-24.33-13.24-2.21-.5-7.34-5.32-12.24-9.08-3.57-2.74-7.01-4.88-9.12-4.4-.05.01-.12,0-.17.02-4.9,1.49-13.16-2.78-18.87-5.8-5.72-3.03-14.26-6.34-14.26-6.34,0,0-13.68-11.21-29.51-15.73-10.86-3.1-21.78-13.65-32.11-21.2-4.67-3.41-9.22-6.21-13.58-7.43-.04-.01-.09-.03-.13-.04-14.07-3.85-29.79-4.42-39.21-3.87Z"/>
  <path class="cls-9" d="M1083.56,1628.71c5.12-6.89,4.34-4.01,1.11-11.23-3.23-7.22-11.33-5.06-11.33-5.06,4.05-1.08,2.07,14.01-.33,18.7-2.39,4.69-5.15,6.89-12.42,10.61-7.27,3.72,4.88.48,13.03-2.17,8.15-2.65,4.83-3.96,9.94-10.85Z"/>
  <path class="cls-3" d="M1528.77,1105.69c5.53-15.37,22.5-23.2,4.11-28.86-18.39-5.66-47.16,6.24-47.16,6.24,0,0-11.55,12.31,2.29,20.85,13.84,8.54,35.23,17.13,40.76,1.76Z"/>
  <path class="cls-3" d="M1635,1182.98c12.94-7.7,16.31-15.84,10.65-28.56-5.66-12.72-30.52-24.37-30.52-24.37,0,0-30,16.57-14.91,31.71,15.09,15.13,21.84,28.92,34.78,21.22Z"/>
  <path class="cls-3" d="M1670.28,1186.93s-31.62,12.14-17.95,30.2c13.67,18.07,21.24,27.49,33.48,20.31,12.24-7.18,16.91-18.16,15.86-24.89-1.05-6.74-24.56-28.93-31.38-25.62Z"/>
  <path class="cls-3" d="M1723.75,1376.57c12.95-.2,33.74-4.32,35.51-15.02,1.76-10.7-9.56-41.78-9.56-41.78,0,0-27.27-6.12-28.35,11.6-1.09,17.72-10.55,45.39,2.4,45.2Z"/>
  <path class="cls-3" d="M1758.02,1398.17c4.43,15.51,11.61,28.98,22.47,30.34,10.86,1.36,26.96-6.81,22.62-16.75-4.34-9.94-18.15-27.61-26.77-27.15,0,0-22.74-1.96-18.31,13.56Z"/>
  <path class="cls-3" d="M1777.86,1560.35c16.05-6.24,26.92-6.78,26.7-19.77-.22-12.99-16.15-50.05-16.15-50.05,0,0-20.33-9.38-19.57,14.49.76,23.86-7.02,61.57,9.02,55.33Z"/>
  <path class="cls-3" d="M1808.43,1631.42c-3.82-3.27-17.75,5.63-27.51,20.37-9.76,14.74-21.45,49.7-7.2,41.03,14.25-8.67,53.54-45.28,34.71-61.4Z"/>
  <path class="cls-3" d="M1686.73,1775.82s-36.85,16.21-41.26,30.55c-4.41,14.34,9.93,21.03,16.81,32.85,6.87,11.82,28.18-15.23,41.26-30.55,13.08-15.32-16.81-32.85-16.81-32.85Z"/>
  <path class="cls-3" d="M1739.75,1697.7c8.04-11.98,24.45-27.89,16.67-40.92-7.77-13.03-21.69-3.15-28.69,2.24-7,5.39-13.16,19.35-13.16,19.35,0,5.64,17.13,31.32,25.17,19.33Z"/>
  <path class="cls-3" d="M1676.25,1287.73s-6.97,23.95,2.28,32.14c9.24,8.19,33.67,2.81,26.54-10.48-7.13-13.29-15.85-36.87-28.82-21.66Z"/>
  <path class="cls-3" d="M1580.12,1202.95c9.98-1.75,23.42-8.26,15.81-15.09s-35.99-40.22-38.14-35.44c-2.15,4.78-9.7,19.47-1.32,30.47,0,0,13.68,21.82,23.66,20.06Z"/>
  <path class="cls-3" d="M1444.42,1113.65l-8.09-10.92s-39-5.45-32.58,10.97c6.42,16.42-.98,23.27,14.38,19.42,15.36-3.86,34.38-8.54,26.29-19.47Z"/>
  <path class="cls-3" d="M1472.01,1130.8c14.91,2.11,29.72,17.1,28.99-1.69-.74-18.79-32.9-14.2-32.9-14.2,0,0-10.99,13.78,3.92,15.89Z"/>
  <path class="cls-3" d="M1360.22,1121.5s-28.84,11.96-24.35,18.03c4.49,6.07,20.86,16.5,26.9,6.39,6.04-10.11,6.12-28.41-2.55-24.42Z"/>
  <path class="cls-3" d="M587.68,510.52s-9.68,27.58-9.04,62.21c.64,34.63,14.07,144.91,24.56,132.08,10.48-12.84,22.6-18.07,19.61-76.07-2.99-58-24.67-84.05-35.13-118.22Z"/>
  <path class="cls-3" d="M670.65,661.19c20.98,16.05.55-29.95-1.9-71.51-2.44-41.56,4.21-44.17-7.49-72.05-11.7-27.88-27.46-24.33-27.46-24.33,0,0-13.37,37.95.82,89.61,14.19,51.66,15.05,62.22,36.03,78.28Z"/>
  <path class="cls-3" d="M700.62,614.51c9.01,20.72,5.94-9.15,15.4-59.74,9.45-50.59,17.19-66.71,7.94-114.31-9.26-47.6-40.25-38.7-40.25-38.7-13.35,75.01,7.91,192.03,16.92,212.75Z"/>
  <path class="cls-3" d="M763.99,540.3c11.21,44.65,21.63,64.55,32.36,64.7,10.72.15-6.28-49.86-10.29-85.35-4.01-35.49,10.16-30.15,5.8-54.98-4.36-24.83-17.4-38.45-23.61-38.32-26.46.58-15.47,69.3-4.26,113.96Z"/>
  <path class="cls-3" d="M635.24,370.79c-10.82-3.46-24.75,5.47-30.17,13.84,0,0-16.63,19.09-13.07,50.7,3.56,31.61,9.34,71.1,18.12,53.57,8.78-17.54,35.94-114.65,25.12-118.11Z"/>
  <path class="cls-3" d="M724.83,395.43c5.68,19.56,8.21,49.4,16.06,29.27,7.85-20.13,25.54-53.73,16.21-62.91-9.32-9.17-24.78,4.56-24.78,4.56,0,0-13.18,9.52-7.49,29.08Z"/>
  <path class="cls-3" d="M802.99,493.37c2.4,20.86,12.31,40.41,19.97,29.22,7.67-11.19,24.88-40.84,18.1-53.98-6.78-13.15-17.96-19.43-21.89-14.85,0,0-18.58,18.74-16.19,39.6Z"/>
  <path class="cls-3" d="M630.8,822.4c-5.48-4.06-5.47,9.81-4.12,15.99,1.35,6.17,10.21,7.68,13.96-.29,3.75-7.98-9.84-15.69-9.84-15.69Z"/>
  <path class="cls-3" d="M799.16,425.94c7.12,8.39,8.77-.46,10.25-10.85,1.48-10.39-12.02-11.24-12.02-11.24-6.34-1.63-5.36,13.7,1.77,22.09Z"/>
  <path class="cls-3" d="M727.33,337.31c1.48-10.39-12.02-11.24-12.02-11.24-6.35-1.63-5.36,13.7,1.76,22.09,7.12,8.39,8.77-.46,10.26-10.86Z"/>
  <path class="cls-3" d="M684.36,330.25c1.48-10.39-12.02-11.24-12.02-11.24-6.35-1.63-5.36,13.7,1.76,22.09,7.12,8.39,8.77-.46,10.26-10.86Z"/>
  <path class="cls-3" d="M632.75,266.03c1.48-10.39-12.02-11.24-12.02-11.24-6.35-1.63-5.36,13.7,1.76,22.09,7.12,8.39,8.77-.46,10.26-10.85Z"/>
  <path class="cls-3" d="M593.58,323.89c1.48-10.39-12.02-11.24-12.02-11.24-6.35-1.63-5.36,13.7,1.76,22.09,7.12,8.39,8.77-.46,10.26-10.85Z"/>
  <path class="cls-3" d="M574.28,362.46c1.48-10.39-12.02-11.24-12.02-11.24-6.35-1.63-5.36,13.7,1.76,22.09,7.12,8.39,8.77-.46,10.26-10.85Z"/>
  <path class="cls-3" d="M585.5,449.34c1.48-10.39-12.02-11.24-12.02-11.24-6.35-1.63-5.36,13.7,1.76,22.09,7.12,8.39,8.77-.46,10.25-10.85Z"/>
  <path class="cls-3" d="M557.06,480.4c-6.35-1.63-5.36,13.7,1.76,22.09,7.12,8.39,8.77-.46,10.26-10.85,1.48-10.39-12.02-11.24-12.02-11.24Z"/>
  <path class="cls-3" d="M609.6,736.2c-6.34-1.63-5.36,13.7,1.77,22.09,7.12,8.39,8.77-.46,10.25-10.85,1.48-10.39-12.02-11.24-12.02-11.24Z"/>
  <path class="cls-3" d="M623.86,336.97c14.64,12.8,23.65,1.06,19.64-15.89-4-16.94-15.15-22.41-25.94-29.87-10.79-7.46-18.34-.16-18.34-.16-14.64,5.76,10,33.12,24.64,45.92Z"/>
  <path class="cls-3" d="M647.04,441.31c.28,16.87,5.99,5.2,17.51-4.7,11.52-9.89,17.03-40.56,13.54-66.44-3.49-25.88-23.21-14.31-25.22-13.52-6.61,2.59.13,15.74-1.24,35.47-1.37,19.73-4.87,32.32-4.59,49.19Z"/>
  <path class="cls-3" d="M854.17,625.19c21.65-9.34,41.82-10.37,66.79-70.48,24.98-60.12,6.78-94.34,8.9-132.85,0,0-27.93,24.64-44.5,60.13-16.57,35.49-52.85,152.55-31.2,143.21Z"/>
  <path class="cls-3" d="M1007.15,531.28c17.46-43.18,28.4-43.47,25.57-76.02-2.84-32.55-27.44-34.54-27.44-34.54,0,0-38.52,33.89-44.08,91.53-5.57,57.64-9.65,68.71,12.58,92.51,22.24,23.8,15.92-30.3,33.38-73.48Z"/>
  <path class="cls-3" d="M1123.72,345.26c-57.21,71.63-85.57,198.33-83,222.63,2.57,24.3,13.22-7.2,52.45-55.35,39.23-48.14,58.57-61.81,69.23-113.56,10.66-51.76-38.68-53.72-38.68-53.72Z"/>
  <path class="cls-3" d="M1184.02,592.23c15.44,3.97,16.1-53,28.23-90.56,12.13-37.56,29.94-27.09,36.17-53.92s-5.74-45.34-14.8-47.41c-38.57-8.82-57.39,65.06-63.73,114.51-6.34,49.45-1.31,73.41,14.13,77.38Z"/>
  <path class="cls-3" d="M1300.45,658.43c4.53,17.73,49.6-41.09,62.54-77.89,12.94-36.8-32.29-59.06-37.04-59.31-32.52-1.7-30.03,119.46-25.5,137.19Z"/>
  <path class="cls-3" d="M1418.63,695.45c-11.38-4.07-33.93,29.38-43.04,50.61-9.11,21.23,31.41-6.49,48.63-17.91,17.22-11.41-2.88-31.73-5.58-32.7Z"/>
  <path class="cls-3" d="M1435.91,841.61c-3.08,12.01,26.39-.59,33.95-8.35,7.56-7.76.67-25.88-.94-26.48-11.18-4.2-29.93,22.83-33.01,34.84Z"/>
  <path class="cls-3" d="M973.25,407.82c21.56-14.73,109.91-103.96,96.01-111.33-13.9-7.37-38.56-3.23-50.65,3.37,0,0-33.7,13.53-44.52,46.98-10.82,33.45-22.4,75.72-.84,60.98Z"/>
  <path class="cls-3" d="M1194.88,388.95c21.53-17.71,64.09-45.63,55.24-58.29-8.85-12.66-38.16-4.17-38.16-4.17,0,0-23.87,5-25.53,26.94-1.66,21.94-13.08,53.22,8.45,35.51Z"/>
  <path class="cls-3" d="M1264.15,517.8c16.74-8.66,56.61-32.73,53.45-48.53-3.16-15.79-16.17-26.17-24.16-22.9,0,0-36.35,12.48-43.42,34.57-7.07,22.09-2.61,45.52,14.13,36.86Z"/>
  <path class="cls-3" d="M1399.95,619.83c12.9-9.11-12.8-28.13-12.8-28.13-5.92-5.02-23.66,15.97-26.91,28.39-3.24,12.43,26.81,8.84,39.71-.26Z"/>
  <path class="cls-3" d="M1399.91,677.7c4.11,8.48,12.07,2.59,22.27-4.8,10.21-7.39-8.1-16.21-8.1-16.21-9.37-2.49-18.28,12.54-14.17,21.01Z"/>
  <path class="cls-3" d="M1458.54,761.74c13.45-9.65-8.98-27.7-8.98-27.7-8.36-8.65-18.31,11.44-19.96,21.07-1.65,9.62,15.49,16.29,28.94,6.64Z"/>
  <path class="cls-3" d="M936.69,1374.68c-5.88-6.08-12.87,8.05-14.04,14.81-1.16,6.77,10.89,11.45,20.35,4.67,9.45-6.79-6.31-19.48-6.31-19.48Z"/>
  <path class="cls-3" d="M923.52,1336.6c-5.88-6.08-12.87,8.05-14.04,14.81-1.16,6.77,10.89,11.45,20.35,4.67s-6.31-19.48-6.31-19.48Z"/>
  <path class="cls-3" d="M1136.8,1046.51c.21-6.61-9.28-14.28-9.28-14.28-5.88-6.08-12.87,8.05-14.04,14.81-1.14,6.66,10.51,11.28,19.89,4.96.15-.1.31-.18.46-.29,2.1-1.51,2.91-3.31,2.97-5.2Z"/>
  <path class="cls-3" d="M834.69,754.72c-5.88-6.08-12.87,8.05-14.04,14.81-1.16,6.77,10.89,11.45,20.35,4.67,9.46-6.79-6.31-19.48-6.31-19.48Z"/>
  <path class="cls-3" d="M1498.61,870.22c14.23,1.87-2.13-16.14-3.24-18.12-8.84-15.71-17.04-5.49-25.66,1.36-8.62,6.85,14.68,14.89,28.91,16.76Z"/>
  <path class="cls-3" d="M1357.38,502.7c7.4-10.05-11.71-15.71-11.71-15.71-8.36-3.91-14.67,12.04-8.61,23.12,6.06,11.08,12.92,2.65,20.32-7.41Z"/>
  <path class="cls-3" d="M1298.86,403.52c7.4-10.05-11.71-15.71-11.71-15.71-8.36-3.91-14.67,12.04-8.61,23.12,6.06,11.08,12.92,2.65,20.32-7.41Z"/>
  <path class="cls-3" d="M1219.39,295.15c7.4-10.05-11.71-15.71-11.71-15.71-8.36-3.91-14.67,12.04-8.61,23.12,6.06,11.08,12.92,2.65,20.32-7.41Z"/>
  <path class="cls-3" d="M1160.8,272.68c7.4-10.05-11.71-15.71-11.71-15.71-8.36-3.91-14.67,12.04-8.61,23.12,6.06,11.08,12.92,2.65,20.32-7.41Z"/>
  <path class="cls-3" d="M1118.58,188.94c7.4-10.05-11.71-15.71-11.71-15.71-8.36-3.91-14.67,12.04-8.61,23.12,6.06,11.08,12.92,2.65,20.32-7.41Z"/>
  <path class="cls-3" d="M1032.69,233.93c7.4-10.05-11.71-15.71-11.71-15.71-8.36-3.91-14.67,12.04-8.61,23.12,6.06,11.08,12.92,2.65,20.32-7.41Z"/>
  <path class="cls-3" d="M985.28,266.34c7.4-10.05-11.71-15.71-11.71-15.71-8.36-3.91-14.67,12.04-8.61,23.12,6.06,11.08,12.92,2.65,20.32-7.41Z"/>
  <path class="cls-3" d="M957.62,358.79c7.4-10.05-11.71-15.71-11.71-15.71-8.36-3.91-14.67,12.04-8.61,23.12,6.06,11.08,12.92,2.65,20.32-7.41Z"/>
  <path class="cls-3" d="M912.49,396.01c7.4-10.05-11.71-15.71-11.71-15.71-8.36-3.91-14.67,12.04-8.61,23.12,6.06,11.08,12.92,2.65,20.32-7.41Z"/>
  <path class="cls-3" d="M847.58,659.42c-8.36-3.91-14.67,12.04-8.61,23.12,6.06,11.08,12.92,2.65,20.32-7.41,7.39-10.05-11.71-15.71-11.71-15.71Z"/>
  <path class="cls-3" d="M1106.33,248.82c2.77-18.68-10.6-28.2-22.43-39.64-11.83-11.43-26.45-6.69-26.45-6.69-24.09.66-2.27,37.28,12.44,55.52,14.71,18.24,33.67,9.48,36.44-9.19Z"/>
  <path class="cls-3" d="M1101.91,288.36c-10.87.28-7.77,16.07-19.72,35.67-11.95,19.6-23.37,31.18-31.48,48.45-8.11,17.28,6.04,7.42,27.7,1.44,21.66-5.98,45.13-35.24,53.15-62.84,8.02-27.59-26.35-22.82-29.65-22.73Z"/>
  <path class="cls-6" d="M992.13,1556.38c53.03-12.62,105.7-24.42,159.44-33.82-6.69-6.13-54.81-8.86-74.16-3.78-23.6,6.2,79.33-32.43,89.7-41.1,10.37-8.67-57.83,15.63-75.17,19.5-17.34,3.88,33.52-32.77,50.67-37.52,17.15-4.75-44.97,10.31-65.22,15.73-13.06,3.49,52.11-47.5,100.03-84.15-43.11,29.34-84.71,60.99-125.58,93.31-24.57,19.58-48.79,39.63-72.69,60,2.53,2.51,5.14,5.01,7.91,7.47,1.64,1.46,3.34,2.91,5.05,4.35Z"/>
  <path class="cls-6" d="M1168.89,1374.97c16.66-11.39-63.9,31.33-98.43,57.09-12.29,9.17-14.18,7.7-10.99,1.21-37.12,35.09-71.49,61.79-98.23,71.8l-6.35,12.55h0c5.73,6.59,11.36,13,16.76,19.06.53.6,1.1,1.18,1.65,1.77,53.02-44.73,130.28-108.18,206.47-159.44-23.48,12.25-47.87,24.78-50.63,25.43-5.47,1.28,23.09-18.08,39.75-29.47Z"/>
  <path class="cls-6" d="M1509.5,1773.86c10.05,3.59,17.57,5.73,23.59,6.68-3.26-3.22-7.26-6.48-11.24-9.16-14.2-9.57-48.63-32.68-81.13-53.74-32.5-21.05-132.33-89.9-178.25-111.16-45.93-21.26-45.93-21.59-95.89-28.15-49.96-6.57-74.98-9.91-76.39-11.91-1.41-2,62.17-7.29,87.13-16.72,11.38-4.3-8.92-5.47-34.36-5.46-1.4.2-2.79.39-4.2.6-28.12,3.89-91.29,13.49-135.27,20.23,53.08,10.62,140.77,27.71,189.24,34.71,72.68,10.49,280.39,161.08,316.77,174.09Z"/>
  <path class="cls-4" d="M1193.67,1340.84c15.87-11.56,50.16-18.54,84.91-40.13,34.75-21.58,32.54-16.96,46.56-34.47,14.02-17.51,26.53-44.46,30.84-68.32,4.32-23.86-34.69,3.14-81.1,13.97-9.56,2.23-16.48,4.01-21.82,5.69-4.8,5.58-9.58,11.2-14.29,16.93-16.98,20.64-35.27,42.56-54.22,64.66-9.43,10.99-19.02,22.03-28.7,32.97-15.41,17.42-31.03,34.61-46.56,51.04,1.48,1.16,3.45,2.12,6.13,2.75,19.68,4.63,62.38-33.53,78.25-45.08Z"/>
  <path class="cls-4" d="M1257.02,1477.14c26.16,9.96-63.11,6.12-74.71,21.06-11.6,14.94,13.67-7.08,51.65-3.99,37.98,3.08,67.45-7.87,104.08,1,36.63,8.87,97.29,19.74,119.6,16.38,22.31-3.36,26.95-1.16,38.1-14.94,11.15-13.78-10.51-41.19-33.57-68.66-23.06-27.47-34.63-20-62.61-22.17-27.98-2.17-79.25,4.53-89.72,2.34-10.46-2.19,79.46-18.83,92.05-24.75,12.59-5.92-56.95-.7-93.07,7.17-36.12,7.87-37.1,12.52-93.05,25.76-55.96,13.25-69.75,32.85-69.75,32.85,13.46-12.48,84.84,17.98,111,27.94Z"/>
  <path class="cls-4" d="M1504.19,1670.65c48.09,30.17,75.94,52.56,97.12,55.78,21.17,3.22,31.95,10.28,34.5-6.64,2.55-16.92-21.23-38.77-38.64-52.19-17.41-13.42-18.1-6.75-46.99-20.38-28.89-13.63-121.39-72.59-234.23-80.34,0,0,4.74,1.71,51.02,27.23,46.28,25.52,89.13,46.36,137.22,76.54Z"/>
  <path class="cls-1" d="M735.87,776.23c-16.76-33.32-27.55-29.49-36.44-7.09-8.89,22.4-16.4,7.72-28.01,65.37-11.61,57.66,140.86,455.71,140.86,455.71,6.07,10.52,12.91,26.48,19.9,40.8-9.77-32.24-17.64-64.1-22.97-91.15-15.26-53.41-29.9-126-36.15-221.29-4.78-72.83-20.43-209.03-37.19-242.35Z"/>
  <path class="cls-1" d="M734.11,609.85c-4.9,31.4.76,46.53,3.67,49.46,0,0,3.25,16.46,27,63.53,23.74,47.07,24.48,96.79,32.58,124.13,1.76,5.93,3.32,11.72,4.76,16.91,2.58-47.86,6-95.95,10.14-141.68-7.33-71.14-30.73-68.2-51.72-114.89-22.12-49.21-21.54-28.86-26.44,2.54Z"/>
  <path class="cls-1" d="M1270.32,1134.93c23.37-23.68,72.87-76.17,97.96-110.64,25.09-34.47,42.98-104.43,22.9-100.9-20.08,3.53-52.46,56.98-79.4,97.34-26.95,40.36-60.85,77.92-101.94,129.84-41.08,51.91-67.69,65.76-95.09,91.4-27.4,25.64-33.82,56.63-33.82,56.63.85,34.13,53.78-39.18,84.41-67.65,30.62-28.47,81.61-72.34,104.98-96.02Z"/>
  <path class="cls-1" d="M860.9,1295.57c7.16,26.55,7.29,77.97,24.24,88.45,16.95,10.48-49.25-111.15,56.26-378.97,29.88-75.85,76.04-220.09,68.62-259.97-7.42-39.88-24.96-39.82-49.14-20.18-24.18,19.64-27.62,2.02-73.55,56.6-45.92,54.58-26.44,514.07-26.44,514.07Z"/>
  <path class="cls-1" d="M1266.38,878.15c-19.99,8.37-54.9,49.44-75.88,109.07-20.98,59.63-68.43,128.22-92.53,154.53-24.1,26.31-57.25,87.9-57.25,87.9-2.39,27.46,70.18-6.13,93.54-32.98,23.37-26.85,53.16-78.36,84.57-123.37,31.41-45.01,59.6-84.02,75.7-117.17,16.1-33.15,30.61-37.97,28.16-62.76-2.45-24.8-36.33-23.59-56.31-15.21Z"/>
  <path class="cls-1" d="M1078.81,700.99c10.57,56.37-13.47,107.25-15.57,137.97-2.09,30.72-8.69,57.18,13.76,33.5,22.45-23.68,32.38-55.18,66.24-142.54,33.86-87.36-5.04-90.1-12.19-148.06-7.15-57.97-16.58-37.04-39.54-6.81-22.96,30.23-22.4,47.65-19.67,51.66,0,0-3.61,17.91,6.96,74.28Z"/>
  <path class="cls-1" d="M1212.92,904.03c29.14-19.31,80.31-91.68,110.97-127.13,30.66-35.45,31.23-52.36,48.06-94.14,16.84-41.77-7.36-13.24-34.42-10.2-27.05,3.04-28.99,19.25-28.99,19.25-5.55,35.95-33.68,61.9-74.17,123.07-40.49,61.17-50.71,77.08-52.59,92.99-1.87,15.92,1.99,15.47,31.13-3.84Z"/>
  <path class="cls-1" d="M1085.08,940.46c-18.93,24.63-91.76,166.18-97.5,205.06-5.73,38.88-12.23,63.78.79,59.05,13.01-4.73,32.58-64.39,66.52-111.86,33.94-47.47,43.89-72.17,66.37-117.96,22.48-45.79,13.74-46.44,5.86-66.71-7.88-20.26-37.75,26.84-42.04,32.42Z"/>
</svg>